<?xml version="1.0" standalone="yes"?>

<svg version="1.1" viewBox="0.0 0.0 960.0 720.0" fill="none" stroke="none" stroke-linecap="square" stroke-miterlimit="10" xmlns="http://www.w3.org/2000/svg" xmlns:xlink="http://www.w3.org/1999/xlink"><clipPath id="p.0"><path d="m0 0l960.0 0l0 720.0l-960.0 0l0 -720.0z" clip-rule="nonzero"></path></clipPath><g clip-path="url(#p.0)"><path fill="#000000" fill-opacity="0.0" d="m0 0l960.0 0l0 720.0l-960.0 0z" fill-rule="evenodd"></path><path fill="#000000" fill-opacity="0.0" d="m16.709974 159.17323l902.36224 0l0 332.40942l-902.36224 0z" fill-rule="evenodd"></path><path fill="#6aa84f" d="m216.30318 468.7357q0 -13.4375 -10.125 -20.875q-10.125 -7.4375 -35.3125 -12.8125q-25.171875 -5.375 -39.953125 -12.890625q-14.78125 -7.53125 -21.859375 -17.921875q-7.078125 -10.390625 -7.078125 -24.734375q0 -23.828125 20.15625 -40.3125q20.15625 -16.5 51.515625 -16.5q32.984375 0 53.5 17.03125q20.515625 17.015625 20.515625 43.546875l-33.328125 0q0 -13.625 -11.5625 -23.46875q-11.5625 -9.859375 -29.125 -9.859375q-18.09375 0 -28.3125 7.890625q-10.203125 7.875 -10.203125 20.59375q0 12.015625 9.484375 18.109375q9.5 6.078125 34.3125 11.640625q24.828125 5.5625 40.234375 13.265625q15.421875 7.703125 22.859375 18.546875q7.4375 10.84375 7.4375 26.421875q0 25.984375 -20.796875 41.671875q-20.78125 15.6719055 -53.9375 15.6719055q-23.296875 0 -41.21875 -8.234375q-17.90625 -8.2500305 -28.03125 -23.03128q-10.125 -14.78125 -10.125 -31.984375l33.140625 0q0.90625 16.65625 13.359375 26.4375q12.453125 9.765625 32.875 9.765625q18.8125 0 30.1875 -7.609375q11.390625 -7.625 11.390625 -20.359375zm156.61961 55.015656q-39.421875 0 -64.15625 -25.890656q-24.71875 -25.890625 -24.71875 -69.265625l0 -6.078125q0 -28.859375 11.015625 -51.53125q11.015625 -22.671875 30.8125 -35.484375q19.8125 -12.8125 42.921875 -12.8125q37.8125 0 58.78125 24.921875q20.96875 24.90625 20.96875 71.3125l0 13.796875l-131.35938 0q0.71875 28.671875 16.75 46.328125q16.046875 17.65625 40.78125 17.65625q17.5625 0 29.734375 -7.171875q12.1875 -7.171875 21.328125 -19.0l20.25 15.765625q-24.359375 37.453156 -73.109375 37.453156zm-4.125 -173.81253q-20.0625 0 -33.6875 14.609375q-13.609375 14.59375 -16.84375 40.9375l97.125 0l0 -2.515625q-1.4375 -25.265625 -13.625 -39.140625q-12.171875 -13.890625 -32.96875 -13.890625z" fill-rule="nonzero"></path><path fill="#6aa84f" d="m652.2968 423.40756q0 44.265625 -21.859375 71.5q-23.84375 29.56253 -67.03125 29.56253q-42.109375 0 -65.40625 -29.203156q-21.140625 -26.703125 -21.140625 -69.890625q0 -2.859375 0.171875 -8.59375l141.9375 0q-1.625 -27.96875 -15.234375 -45.171875q-15.421875 -19.53125 -42.296875 -19.53125q-36.203125 0 -50.171875 39.0625l-33.328125 -4.109375q16.65625 -61.46875 83.6875 -61.46875q44.078125 0 68.09375 27.234375q22.578125 25.8125 22.578125 70.609375zm-35.125 19.890625l-106.265625 0q2.15625 24.015625 12.1875 36.015625q15.40625 18.640625 39.953125 18.640625q23.65625 0 38.359375 -15.765625q14.15625 -14.875 15.765625 -38.890625z" fill-rule="nonzero"></path><path fill="#6aa84f" d="m768.40106 496.70444q17.734375 0 31.0 -10.75q13.265625 -10.765625 14.703125 -26.890625l31.359375 0q-0.90625 16.671875 -11.484375 31.71875q-10.5625 15.046875 -28.21875 24.015656q-17.640625 8.953125 -37.359375 8.953125q-39.609375 0 -63.0 -26.421906q-23.375 -26.4375 -23.375 -72.3125l0 -5.546875q0 -28.328125 10.390625 -50.359375q10.40625 -22.046875 29.84375 -34.234375q19.4375 -12.1875 45.96875 -12.1875q32.609375 0 54.203125 19.546875q21.59375 19.53125 23.03125 50.703125l-31.359375 0q-1.4375 -18.8125 -14.25 -30.90625q-12.8125 -12.09375 -31.625 -12.09375q-25.265625 0 -39.15625 18.1875q-13.890625 18.1875 -13.890625 52.59375l0 6.265625q0 33.515625 13.796875 51.625q13.796875 18.09375 39.421875 18.09375z" fill-rule="nonzero"></path><path fill="#000000" fill-opacity="0.0" d="m435.56693 490.01312l66.61417 -137.98425" fill-rule="evenodd"></path><path stroke="#6aa84f" stroke-width="24.0" stroke-linejoin="round" stroke-linecap="butt" d="m435.56693 490.01312l66.61417 -137.98425" fill-rule="evenodd"></path><path fill="#6aa84f" d="m538.72955 90.1607l0 0c27.219055 33.03637 23.18042 81.325066 -9.020508 107.85584q-37.039154 30.516983 -60.74533 77.21643q-15.535461 -50.99582 -46.844147 -88.99588l0 0c-27.219086 -33.03636 -23.18045 -81.325066 9.020508 -107.855835l0 0c32.20099 -26.530762 80.37042 -21.256927 107.58948 11.779442z" fill-rule="evenodd"></path><path fill="#6aa84f" d="m422.11957 186.23709l0 0c-27.219086 -33.03636 -23.18045 -81.325066 9.020508 -107.855835q32.872375 -27.083935 59.456055 -61.800602q20.346863 39.85486 48.133423 73.58005l0 0c27.219055 33.03637 23.18042 81.325066 -9.020508 107.85584l0 0c-32.20099 26.530762 -80.37042 21.256927 -107.58948 -11.779449z" fill-rule="evenodd"></path><path fill="#ffffff" d="m470.6768 263.63275l0 0c-8.241852 -0.7956848 -11.557037 -36.30716 -7.404663 -79.31708c4.1523438 -43.009903 14.199829 -77.231285 22.44165 -76.435585c-7.707367 8.307411 -15.602814 39.941063 -19.156769 76.75272c-3.553955 36.81166 -1.8559875 69.371506 4.1197815 78.99994z" fill-rule="evenodd"></path><path fill="#ffffff" d="m463.46793 200.6113l0 0c-3.9585571 -3.527893 1.6251221 -16.313095 12.471497 -28.55658c10.846344 -12.243469 22.848083 -19.308853 26.80664 -15.78096c-5.5475464 -0.37564087 -15.945648 6.708008 -25.228912 17.187042c-9.283264 10.47905 -15.073669 21.669128 -14.049225 27.150497z" fill-rule="evenodd"></path><path fill="#ffffff" d="m433.86734 166.04037l0 0c4.7067566 -2.4116821 14.588593 7.4181213 22.071716 21.955475c7.483124 14.537369 9.733856 28.277283 5.02713 30.688965c2.3467712 -5.0330963 -0.49832153 -17.2854 -6.9030457 -29.727753c-6.404724 -12.442352 -14.728424 -21.887466 -20.1958 -22.916687z" fill-rule="evenodd"></path><path fill="#ffffff" d="m440.00137 120.863365l0 0c4.2301636 -3.0868378 13.517639 2.4070816 20.744202 12.271004c7.226532 9.863937 9.655579 20.36261 5.425415 23.449448l0 0c2.0046692 -4.61911 -0.92630005 -13.776733 -7.1114197 -22.219147c-6.185089 -8.442413 -14.0399475 -14.006981 -19.058197 -13.501305z" fill-rule="evenodd"></path><path fill="#ffffff" d="m472.52026 146.02419l0 0c-2.5462646 -4.5799255 4.0390015 -13.138687 14.708618 -19.116539c10.669617 -5.977852 21.383179 -7.111107 23.929443 -2.531189c-4.3383484 -2.555359 -13.782623 -0.75979614 -22.914612 4.356575c-9.131989 5.1163635 -15.612427 12.24292 -15.72345 17.291153z" fill-rule="evenodd"></path><path fill="#000000" fill-opacity="0.0" d="m473.7578 350.36533c-1.4850769 -8.261017 -8.230896 -35.128723 -8.910522 -49.566162c-0.67959595 -14.437439 4.0274353 -30.882019 4.832947 -37.05844" fill-rule="evenodd"></path><path stroke="#6aa84f" stroke-width="4.0" stroke-linejoin="round" stroke-linecap="butt" d="m473.7578 350.36533c-1.4850769 -8.261017 -8.230896 -35.128723 -8.910522 -49.566162c-0.67959595 -14.437439 4.0274353 -30.882019 4.832947 -37.05844" fill-rule="evenodd"></path><path fill="#93c47d" d="m332.27008 207.60025l0 0c-4.569824 30.617142 16.173187 56.143066 46.33081 57.013763q34.68878 1.0014954 67.1391 17.000427q-9.51593 -35.64383 -4.259491 -70.861176l0 0c4.569824 -30.617142 -16.173218 -56.14308 -46.33084 -57.013763l0 0c-30.157623 -0.87068176 -58.309784 23.243591 -62.879578 53.86075z" fill-rule="evenodd"></path><path fill="#93c47d" d="m441.4805 210.75327l0 0c4.569824 -30.617142 -16.173218 -56.14308 -46.33084 -57.013763q-30.786407 -0.8888397 -60.51703 -8.851471q2.3025513 31.456696 -2.3625488 62.71222l0 0c-4.569824 30.617142 16.173187 56.143066 46.33081 57.013763l0 0c30.157654 0.8706665 58.309784 -23.243591 62.87961 -53.86075z" fill-rule="evenodd"></path><path fill="#ffffff" d="m440.2921 275.80838l0 0c4.857086 -4.065674 -6.464386 -25.59488 -25.287262 -48.086792c-18.822876 -22.491928 -38.019287 -37.429337 -42.876373 -33.363663c7.956604 1.3148346 24.830261 15.733536 40.94052 34.984085c16.11026 19.250565 27.330261 38.401672 27.223114 46.46637z" fill-rule="evenodd"></path><path fill="#ffffff" d="m421.02948 237.01945l0 0c1.1462097 -3.731018 -7.1706543 -8.508865 -18.576263 -10.671616c-11.405609 -2.1627502 -21.580841 -0.89141846 -22.72705 2.8395996l0 0c3.3296204 -2.646164 12.508301 -3.2036285 22.270203 -1.3525543c9.761932 1.8510742 17.606415 5.63649 19.033112 9.18457z" fill-rule="evenodd"></path><path fill="#ffffff" d="m426.51065 204.49l0 0c-3.85495 0.7016144 -6.330353 10.593796 -5.5289307 22.094833c0.8013916 11.501022 4.576111 20.255676 8.431061 19.554077c-3.367096 -1.8156586 -6.2087097 -9.990128 -6.894623 -19.83371c-0.6859131 -9.843597 0.9595947 -18.834732 3.9924927 -21.8152z" fill-rule="evenodd"></path><path fill="#ffffff" d="m405.63025 181.64241l0 0c-3.8114014 0.11087036 -7.5505066 7.291214 -8.351501 16.037766c-0.80096436 8.7465515 1.6394653 15.747162 5.450897 15.6362915c-2.9968567 -1.7317047 -4.61734 -8.194412 -3.9317932 -15.680481c0.6855469 -7.4860687 3.5015259 -14.07782 6.8323975 -15.993576z" fill-rule="evenodd"></path><path fill="#ffffff" d="m394.77325 210.13263l0 0c-0.1343689 -3.7061462 -7.483673 -5.6553345 -16.4151 -4.353653c-8.931427 1.3016815 -16.062836 5.361328 -15.928467 9.067459l0 0c1.7507324 -3.3478699 8.337738 -6.476242 15.982025 -7.590332c7.6443176 -1.11409 14.387726 0.07145691 16.361542 2.8765259z" fill-rule="evenodd"></path><path fill="#000000" fill-opacity="0.0" d="m467.22433 328.18948c-2.4776 -5.873413 -10.263611 -25.826447 -14.865723 -35.24048c-4.6021423 -9.414001 -10.622528 -17.702972 -12.74704 -21.24356" fill-rule="evenodd"></path><path stroke="#93c47d" stroke-width="3.0" stroke-linejoin="round" stroke-linecap="butt" d="m467.22433 328.18948c-2.4776 -5.873413 -10.263611 -25.826447 -14.865723 -35.24048c-4.6021423 -9.414001 -10.622528 -17.702972 -12.74704 -21.24356" fill-rule="evenodd"></path><path fill="#93c47d" d="m636.19635 174.37732l0 0c9.340393 34.925034 -11.093079 69.30957 -45.639465 76.80002q-39.736877 8.615875 -74.8985 34.339355q6.1783447 -43.841583 -4.5654297 -84.01405l0 0c-9.340363 -34.925034 11.093079 -69.30957 45.639465 -76.80002l0 0c34.546326 -7.490448 70.123535 14.74968 79.46393 49.674698z" fill-rule="evenodd"></path><path fill="#93c47d" d="m511.09296 201.50264l0 0c-9.340363 -34.925034 11.093079 -69.30957 45.639465 -76.80002q35.2666 -7.6466217 68.375244 -23.362335q1.5535278 37.38382 11.088684 73.03703l0 0c9.340393 34.925034 -11.093079 69.30957 -45.639465 76.80002l0 0c-34.546326 7.490448 -70.123535 -14.74968 -79.46393 -49.674698z" fill-rule="evenodd"></path><path fill="#ffffff" d="m521.14484 277.53912l0 0c-6.1254883 -3.7259521 4.0126953 -31.402344 22.644287 -61.816925c18.631592 -30.414597 38.70117 -52.049988 44.82666 -48.32402l0 0c-8.9696045 3.248764 -26.43872 23.777573 -42.385254 49.809036c-15.946533 26.031479 -26.285583 50.897278 -25.085693 60.33191z" fill-rule="evenodd"></path><path fill="#ffffff" d="m538.10596 227.9184l0 0c-1.8156128 -4.1295624 7.105774 -11.516769 19.92633 -16.499786c12.820618 -4.983017 24.685608 -5.674881 26.50116 -1.5453186l0 0c-4.180298 -2.3889465 -14.804504 -1.0737 -25.777527 3.191208c-10.972961 4.264908 -19.483887 10.386932 -20.649963 14.853897z" fill-rule="evenodd"></path><path fill="#ffffff" d="m527.46277 190.94626l0 0c4.524475 -0.0041656494 8.69043 11.065598 9.304871 24.72499c0.61450195 13.659409 -2.5551758 24.735916 -7.079712 24.740082c3.6276855 -2.8515625 5.802368 -13.047501 5.276428 -24.738419c-0.5258789 -11.690918 -3.6176758 -21.882004 -7.501587 -24.726654z" fill-rule="evenodd"></path><path fill="#ffffff" d="m548.41174 159.6732l0 0c4.395569 -0.6876068 9.6519165 6.9308167 11.740356 17.01625c2.08844 10.085419 0.21813965 18.818695 -4.177429 19.506317l0 0c3.2133179 -2.6736908 4.2130127 -10.600281 2.425537 -19.23227c-1.7874756 -8.631989 -5.904236 -15.758194 -9.988464 -17.290298z" fill-rule="evenodd"></path><path fill="#ffffff" d="m564.6945 190.75522l0 0c-0.34039307 -4.3750916 7.8464966 -8.237518 18.285889 -8.626968c10.439392 -0.38945007 19.178162 2.8415527 19.518555 7.2166443l0 0c-2.4592896 -3.5505676 -10.447937 -5.8062286 -19.382874 -5.4729004c-8.934998 0.33332825 -16.527466 3.1702423 -18.42157 6.8832245z" fill-rule="evenodd"></path><path fill="#000000" fill-opacity="0.0" d="m521.33563 273.2903c-3.267334 5.8220215 -14.774261 25.07962 -19.604034 34.9321c-4.829773 9.852478 -7.812195 20.152313 -9.374664 24.18277" fill-rule="evenodd"></path><path stroke="#93c47d" stroke-width="3.0" stroke-linejoin="round" stroke-linecap="butt" d="m521.33563 273.2903c-3.267334 5.8220215 -14.774261 25.07962 -19.604034 34.9321c-4.829773 9.852478 -7.812195 20.152313 -9.374664 24.18277" fill-rule="evenodd"></path></g></svg>

